<svg width="176" height="176" viewBox="0 0 176 176" fill="none" xmlns="http://www.w3.org/2000/svg">
<rect width="176" height="176" rx="30" fill="#090909"/>
<path d="M125.689 15.3357C123.871 21.4074 123.398 22.0258 110.165 35.631C95.5143 50.6978 96.0596 50.0794 94.5327 53.3964C92.8968 56.9944 92.5332 60.2552 92.6786 71.2742L92.7362 76.3217C92.7438 76.9821 93.6876 77.0885 93.842 76.4464C94.8599 72.2299 96.4232 68.1821 97.6593 66.608C97.9864 66.2144 103.803 60.1427 110.602 53.059C117.4 46.0316 123.508 39.3415 124.126 38.1608C126.38 34.2817 126.561 33.1573 126.707 24.6119C126.779 20.283 126.779 15.7292 126.707 14.5486C126.686 14.1154 126.076 14.0412 125.952 14.4567L125.689 15.3357Z" fill="#FF8A00"/>
<path d="M44.4088 33.199C49.458 39.6974 49.8716 41.0914 57.9788 78.9821C66.9585 120.934 66.5703 119.355 69.1418 124.264C71.9383 129.538 74.8643 131.468 85.2334 134.489L89.3558 135.711C90.8167 136.144 91.606 134.33 90.4839 133.118C86.892 129.228 83.6489 124.001 82.6075 120.368C82.3536 119.414 78.7043 102.73 74.4511 83.2353C70.2506 63.7578 66.124 46.1433 65.2349 44.2058C62.3915 37.2712 61.4023 36.4622 53.4513 33.4616C49.4232 31.944 45.1591 30.5424 44.0281 30.3642C43.2346 30.2108 42.82 31.1542 43.3699 31.8619L44.4088 33.199Z" fill="#FF8A00"/>
<path d="M126.537 48.5884C125.01 52.7487 123.556 54.7726 117.593 60.9567C108.941 69.8957 108.25 71.526 108.068 83.1635L107.997 87.9479C107.991 88.3565 108.569 88.4459 108.686 88.0546C109.813 84.2317 111.086 82.0391 113.958 79.0032C118.102 74.5619 117.884 74.4495 117.702 80.9709C117.448 90.3596 116.685 91.8213 106.178 102.672C96.9439 112.173 95.9259 113.466 94.5808 117.457C93.6719 120.156 93.5992 120.774 93.4902 130.107L93.4208 136.365C93.4133 137.04 94.3548 137.208 94.5808 136.572C95.2716 134.717 96.2168 132.356 96.6894 131.287C97.2711 130.107 102.47 124.372 110.686 115.94C117.884 108.519 124.137 101.885 124.61 101.266C125.082 100.592 125.919 98.5677 126.537 96.6562C127.235 94.4206 127.587 92.0912 127.58 89.7489L127.518 69.727L127.421 48.7444C127.419 48.2365 126.713 48.1119 126.537 48.5884Z" fill="#FF8A00"/>
<path d="M45.7266 152V131.375H49.7109V152H45.7266ZM51.3516 152V131.375H55.5938L57.4922 141.254V131.375H61.4766V152H57.4453L55.3828 141.688V152H51.3516ZM68.2031 152.188C66.3203 152.188 64.9609 151.719 64.125 150.781C63.2969 149.844 62.8828 148.352 62.8828 146.305V144.289H66.9609V146.867C66.9609 147.344 67.0312 147.719 67.1719 147.992C67.3203 148.258 67.5742 148.391 67.9336 148.391C68.3086 148.391 68.5664 148.281 68.707 148.062C68.8555 147.844 68.9297 147.484 68.9297 146.984C68.9297 146.352 68.8672 145.824 68.7422 145.402C68.6172 144.973 68.3984 144.566 68.0859 144.184C67.7812 143.793 67.3555 143.34 66.8086 142.824L64.957 141.066C63.5742 139.762 62.8828 138.27 62.8828 136.59C62.8828 134.832 63.2891 133.492 64.1016 132.57C64.9219 131.648 66.1055 131.188 67.6523 131.188C69.543 131.188 70.8828 131.691 71.6719 132.699C72.4688 133.707 72.8672 135.238 72.8672 137.293H68.6719V135.875C68.6719 135.594 68.5898 135.375 68.4258 135.219C68.2695 135.062 68.0547 134.984 67.7812 134.984C67.4531 134.984 67.2109 135.078 67.0547 135.266C66.9062 135.445 66.832 135.68 66.832 135.969C66.832 136.258 66.9102 136.57 67.0664 136.906C67.2227 137.242 67.5312 137.629 67.9922 138.066L70.3711 140.352C70.8477 140.805 71.2852 141.285 71.6836 141.793C72.082 142.293 72.4023 142.879 72.6445 143.551C72.8867 144.215 73.0078 145.027 73.0078 145.988C73.0078 147.926 72.6484 149.445 71.9297 150.547C71.2188 151.641 69.9766 152.188 68.2031 152.188ZM79.1602 152.188C77.4414 152.188 76.1758 151.707 75.3633 150.746C74.5508 149.777 74.1445 148.355 74.1445 146.48V131.375H78.1523V146.316C78.1523 146.66 78.1719 146.992 78.2109 147.312C78.25 147.625 78.3398 147.883 78.4805 148.086C78.6211 148.289 78.8477 148.391 79.1602 148.391C79.4805 148.391 79.7109 148.293 79.8516 148.098C79.9922 147.895 80.0781 147.633 80.1094 147.312C80.1484 146.992 80.168 146.66 80.168 146.316V131.375H84.1758V146.48C84.1758 148.355 83.7695 149.777 82.957 150.746C82.1445 151.707 80.8789 152.188 79.1602 152.188ZM90.0117 152.188C87.0664 152.188 85.5938 150.078 85.5938 145.859V136.965C85.5938 133.113 87.2812 131.188 90.6562 131.188C92.0469 131.188 93.1133 131.469 93.8555 132.031C94.5977 132.586 95.1094 133.398 95.3906 134.469C95.6719 135.539 95.8125 136.844 95.8125 138.383H91.7812V136.555C91.7812 136.109 91.7188 135.738 91.5938 135.441C91.4766 135.137 91.2266 134.984 90.8438 134.984C90.3672 134.984 90.0508 135.145 89.8945 135.465C89.7461 135.785 89.6719 136.137 89.6719 136.52V146.516C89.6719 147.07 89.7422 147.523 89.8828 147.875C90.0312 148.219 90.3164 148.391 90.7383 148.391C91.1758 148.391 91.4648 148.219 91.6055 147.875C91.7539 147.523 91.8281 147.062 91.8281 146.492V143.551H90.7266V139.988H95.7656V152H94.1133L93.4102 150.266C92.6914 151.547 91.5586 152.188 90.0117 152.188ZM96.8438 152L98.8359 131.375H105.832L107.789 152H103.887L103.594 148.672H101.109L100.852 152H96.8438ZM101.402 145.379H103.277L102.375 134.891H102.188L101.402 145.379ZM109.055 152V131.375H115.336L117.07 143.949L118.793 131.375H125.133V152H121.359V137.141L118.992 152H115.289L112.781 137.141V152H109.055ZM126.961 152V131.375H135.211V135.359H131.156V139.379H135.047V143.258H131.156V147.98H135.48V152H126.961Z" fill="#FF8A00"/>
</svg>
