<svg width="109" height="116" viewBox="0 0 109 116" fill="none" xmlns="http://www.w3.org/2000/svg">
<g clip-path="url(#clip0_146_23)">
<path fill-rule="evenodd" clip-rule="evenodd" d="M31.9896 0.711829C23.1177 1.13784 15.4279 3.44622 9.21864 10.0264C2.98766 16.6411 0.845521 24.8571 0.444221 34.2006C0.194763 40.0324 -1.26393 84.0902 2.96598 95.6443C5.81845 103.439 11.4365 109.433 18.828 112.478C22.277 113.906 26.2142 114.872 31.9896 115.154C80.2811 117.48 98.1822 116.214 105.731 95.6443C107.07 91.9829 107.992 87.7966 108.247 81.6654C110.454 30.1409 107.889 18.9726 99.473 10.0264C92.7973 2.93959 84.9448 -1.88454 31.9896 0.711829ZM32.4342 104.792C27.1468 104.538 24.2781 103.601 22.3638 102.812C17.5482 100.82 13.9311 96.9868 12.071 91.8919C8.8498 83.1126 9.91817 41.415 10.2056 34.6679C10.4876 28.0589 11.7457 22.0188 16.1274 17.3557C21.5504 11.5987 28.5568 8.77728 76.2626 11.0686C82.4881 11.3679 88.1769 12.7041 92.5695 17.3557C97.9924 23.1126 100.682 30.6263 98.4913 81.201C98.2527 86.814 97.3688 89.8597 96.6259 91.8919C91.7181 105.277 80.4274 107.135 32.4342 104.792ZM76.7886 27.1998C76.7886 31.0109 79.7008 34.11 83.2963 34.11C86.8917 34.11 89.8092 31.0109 89.8092 27.1998C89.8092 23.3888 86.8917 20.2925 83.2963 20.2925C79.7008 20.2925 76.7886 23.3888 76.7886 27.1998ZM26.5015 57.9302C26.5015 74.2568 38.969 87.4938 54.3485 87.4938C69.728 87.4938 82.1954 74.2568 82.1954 57.9302C82.1954 41.6035 69.728 28.3751 54.3485 28.3751C38.969 28.3751 26.5015 41.6035 26.5015 57.9302ZM36.2737 57.9302C36.2737 47.3375 44.3648 38.7432 54.3485 38.7432C64.3321 38.7432 72.4232 47.3375 72.4232 57.9302C72.4232 68.5287 64.3321 77.1257 54.3485 77.1257C44.3648 77.1257 36.2737 68.5287 36.2737 57.9302Z" fill="#FF8A00"/>
</g>
<defs>
<clipPath id="clip0_146_23">
<rect width="109" height="116" fill="white"/>
</clipPath>
</defs>
</svg>
