<svg width="100" height="118" viewBox="0 0 100 118" fill="none" xmlns="http://www.w3.org/2000/svg">
<path fill-rule="evenodd" clip-rule="evenodd" d="M79.1051 82.8076C77.9001 86.8081 73.11 90.1177 69.29 91.0855C66.675 91.7366 63.265 92.2517 51.775 86.6674C38.87 80.3968 20.95 58.0604 20.95 43.1963C20.95 35.6293 24.67 26.818 31.175 26.818C34.305 26.818 34.995 26.8896 36.025 29.7873C37.23 33.2012 40.17 41.6124 40.52 42.4747C41.965 46.0118 39.05 48.0825 36.935 51.1621C36.26 52.0888 35.495 53.0912 36.35 54.8157C37.2 56.5051 40.14 62.1247 44.46 66.6355C50.04 72.4662 54.565 74.3277 56.185 75.1196C57.39 75.7062 58.83 75.5695 59.71 74.4667C60.825 73.0531 62.21 70.7076 63.62 68.3965C64.615 66.7423 65.8801 66.5357 67.205 67.1223C68.1 67.486 79.475 73.6816 79.955 74.6729C80.31 75.3944 80.3101 78.8071 79.1051 82.8076ZM50.01 0H49.985C22.42 0 0 26.3026 0 58.6411C0 71.4639 3.52503 83.3603 9.52003 93.0097L3.29002 114.8L22.505 107.598C30.41 113.734 39.845 117.282 50.01 117.282C77.575 117.282 100 90.9796 100 58.6411C100 26.3026 77.575 0 50.01 0Z" fill="#FF8A00"/>
</svg>
