<svg width="111" height="111" viewBox="0 0 111 111" fill="none" xmlns="http://www.w3.org/2000/svg">
<path fill-rule="evenodd" clip-rule="evenodd" d="M34.9095 99.8988C76.7953 99.8988 99.7058 65.7306 99.7058 36.1036C99.7058 35.131 99.7057 34.1657 99.6391 33.204C104.096 30.0347 107.942 26.0997 111 21.5972C106.849 23.4114 102.436 24.6011 97.9242 25.1256C102.675 22.3225 106.233 17.9186 107.936 12.7221C103.463 15.334 98.5735 17.1773 93.4731 18.1664C84.8484 9.13951 70.424 8.70215 61.2498 17.1935C55.3391 22.6687 52.8249 30.832 54.662 38.6185C36.3525 37.7115 19.2918 29.1983 7.7256 15.1936C1.68165 25.4389 4.773 38.5408 14.7797 45.1197C11.1555 45.0158 7.60905 44.0552 4.44 42.3176V42.6021C4.44555 53.2738 12.0879 62.4626 22.7106 64.5772C19.3584 65.4788 15.8397 65.6096 12.432 64.9593C15.4123 74.0955 23.9649 80.3531 33.7052 80.5335C25.641 86.7736 15.6788 90.162 5.42235 90.1511C3.61305 90.1456 1.80375 90.0417 0 89.8286C10.4173 96.4075 22.533 99.899 34.9095 99.8826" fill="#FF8A00"/>
</svg>
