<svg width="108" height="112" viewBox="0 0 108 112" fill="none" xmlns="http://www.w3.org/2000/svg">
<path d="M107.334 55.35C107.209 44.6785 104.182 34.2666 98.6102 25.3406C93.0382 16.4147 85.1535 9.34627 75.8842 4.96798C66.6142 0.589691 56.3462 -0.916149 46.2888 0.627701C36.2317 2.17162 26.804 6.7009 19.1162 13.6823C11.4283 20.6637 5.80051 29.8064 2.89551 40.0336C-0.00942266 50.261 -0.0706237 61.1467 2.71924 71.4094C5.50911 81.6721 11.0338 90.8834 18.6426 97.9597C26.2514 105.036 35.6276 109.682 45.6668 111.35V71.66H32.3336V55.35H45.6668V42.96C45.3582 40.0792 45.6555 37.1622 46.5382 34.4152C47.4208 31.6681 48.8668 29.1579 50.7742 27.0617C52.6815 24.9655 55.0035 23.3344 57.5768 22.2837C60.1502 21.2328 62.9122 20.7878 65.6668 20.9802C69.6655 21.0377 73.6548 21.4121 77.6002 22.1002V36.1002H70.9335C69.7842 35.9479 68.6162 36.0689 67.5175 36.4541C66.4182 36.8393 65.4155 37.4789 64.5835 38.3256C63.7515 39.1724 63.1115 40.2046 62.7108 41.3458C62.3095 42.4875 62.1582 43.709 62.2668 44.92V55.49H77.0668L74.6668 71.8H62.3335V111C74.9328 108.908 86.4008 102.143 94.6568 91.9327C102.913 81.7225 107.41 68.7438 107.334 55.35Z" fill="#FF8A00"/>
</svg>
